<svg width="84" height="60" viewBox="0 0 84 60" fill="none" xmlns="http://www.w3.org/2000/svg">
<path d="M84 52C84 56.418 80.418 60 76 60H8C3.582 60 0 56.418 0 52V8C0 3.582 3.582 0 8 0H76C80.418 0 84 3.582 84 8V52Z" fill="#3F51B5"/>
<path d="M54 10C48.6957 10 43.6086 12.1071 39.8579 15.8579C36.1071 19.6086 34 24.6957 34 30C34 35.3043 36.1071 40.3914 39.8579 44.1421C43.6086 47.8929 48.6957 50 54 50C59.3043 50 64.3914 47.8929 68.1421 44.1421C71.8929 40.3914 74 35.3043 74 30C74 24.6957 71.8929 19.6086 68.1421 15.8579C64.3914 12.1071 59.3043 10 54 10V10Z" fill="#FFC107"/>
<path d="M38.028 42C37.1 40.766 36.302 39.432 35.676 38H46.326C46.882 36.728 47.318 35.392 47.6 34H34.404C34.14 32.708 34 31.372 34 30H48C48 28.628 47.86 27.292 47.598 26H34.402C34.686 24.608 35.12 23.272 35.676 22H46.326C45.7 20.568 44.904 19.234 43.974 18H38.028C38.902 16.84 39.888 15.756 40.99 14.81C37.494 11.818 32.962 10 28 10C16.954 10 8 18.954 8 30C8 41.046 16.954 50 28 50C34.538 50 40.324 46.85 43.972 42H38.028Z" fill="#FF3D00"/>
</svg>
