<svg width="72" height="72" viewBox="0 0 72 72" fill="none" xmlns="http://www.w3.org/2000/svg">
<g clip-path="url(#clip0_1_28)">
<path d="M27.4 15.534L27.41 15.538C27.618 14.652 28.374 14 29.32 14H56.264C56.298 14 56.332 13.986 56.366 13.988C55.792 4.43 47.774 0 40.7 0H13.756C12.808 0 12.052 0.67 11.846 1.554L11.836 1.55L0.0580006 55.626L0.0840006 55.628C0.0560006 55.756 0.00600052 55.878 0.00600052 56.016C0.00600052 57.122 0.900001 57.998 2.006 57.998H18.148L27.4 15.534Z" fill="#1565C0"/>
<path d="M56.366 13.988C56.472 15.74 56.356 17.646 55.908 19.752C53.346 31.742 44.084 37.982 32.638 37.982C32.638 37.982 25.698 37.982 24.012 37.982C22.97 37.982 22.478 38.594 22.252 39.062L18.772 55.16L18.162 58.018H18.15L15.624 69.61L15.65 69.612C15.622 69.74 15.572 69.862 15.572 70C15.572 71.106 16.466 72 17.572 72H32.238L32.264 71.98C33.208 71.966 33.958 71.292 34.154 70.404L34.19 70.374L37.814 53.542C37.814 53.542 38.066 51.936 39.754 51.936C41.442 51.936 48.11 51.936 48.11 51.936C59.556 51.936 68.912 45.724 71.476 33.732C74.36 20.212 64.716 14.038 56.366 13.988Z" fill="#039BE5"/>
<path d="M29.32 14C28.372 14 27.616 14.652 27.41 15.538L27.4 15.534L22.25 39.064C22.476 38.596 22.968 37.984 24.01 37.984C25.698 37.984 32.48 37.984 32.48 37.984C43.926 37.984 53.344 31.744 55.906 19.754C56.356 17.648 56.47 15.742 56.364 13.99C56.332 13.986 56.296 14 56.264 14H29.32Z" fill="#283593"/>
</g>
<defs>
<clipPath id="clip0_1_28">
<rect width="72" height="72" fill="white"/>
</clipPath>
</defs>
</svg>
