<svg width="84" height="60" viewBox="0 0 84 60" fill="none" xmlns="http://www.w3.org/2000/svg">
<path d="M84 52C84 56.418 80.418 60 76 60H8C3.582 60 0 56.418 0 52V8C0 3.582 3.582 0 8 0H76C80.418 0 84 3.582 84 8V52Z" fill="#1565C0"/>
<path d="M24.372 20L19.12 35.664C19.12 35.664 17.786 29.038 17.654 28.206C14.664 21.384 10.252 21.764 10.252 21.764L15.452 42V41.996H21.774L30.516 20H24.372ZM29.378 42H35.12L38.592 20H32.778L29.378 42ZM70.016 20H63.974L54.554 42H60.258L61.434 38.858H68.626L69.238 42H74.464L70.016 20ZM63.026 34.656L66.152 26.342L67.788 34.656H63.026ZM46.738 26.412C46.738 25.2 47.734 24.298 50.59 24.298C52.446 24.298 54.572 25.646 54.572 25.646L55.504 21.028C55.504 21.028 52.788 19.998 50.122 19.998C44.084 19.998 40.97 22.886 40.97 26.542C40.97 33.154 48.928 32.248 48.928 35.644C48.928 36.226 48.466 37.572 45.152 37.572C41.828 37.572 39.634 36.354 39.634 36.354L38.644 40.786C38.644 40.786 40.77 41.998 44.878 41.998C48.996 41.998 54.708 38.918 54.708 34.494C54.708 29.172 46.738 28.788 46.738 26.412Z" fill="white"/>
<path d="M18.424 31.89L16.492 22.394C16.492 22.394 15.618 20.336 13.346 20.336C11.074 20.336 4.466 20.336 4.466 20.336C4.466 20.336 15.788 23.68 18.424 31.89Z" fill="#FFC107"/>
</svg>
